<svg width="500" height="500" viewBox="0 0 500 500" fill="none" xmlns="http://www.w3.org/2000/svg">
<path d="M488.842 255.173C500.314 212.847 498.413 162.533 474.205 124.582C433.176 60.2604 378.442 43.4464 311.696 54.5214C244.95 65.5974 236.063 108.587 202.196 121.847C168.329 135.107 103.958 127.33 57.681 156.443C11.404 185.556 -9.80204 272.646 53.011 366.418C115.824 460.19 223.953 487.346 329.013 441.514C403.487 409.022 467.776 332.894 488.842 255.173Z" fill="#79AADC"/>
<path opacity="0.7" d="M488.842 255.173C500.314 212.847 498.413 162.533 474.205 124.582C433.176 60.2604 378.442 43.4464 311.696 54.5214C244.95 65.5974 236.063 108.587 202.196 121.847C168.329 135.107 103.958 127.33 57.681 156.443C11.404 185.556 -9.80204 272.646 53.011 366.418C115.824 460.19 223.953 487.346 329.013 441.514C403.487 409.022 467.776 332.894 488.842 255.173Z" fill="white"/>
<path opacity="0.2" d="M450 192.29H408V209.29H450V192.29Z" fill="black"/>
<path opacity="0.2" d="M434 131.79H392V148.79H434V131.79Z" fill="black"/>
<path opacity="0.2" d="M282 191.79H240V208.79H282V191.79Z" fill="black"/>
<path opacity="0.2" d="M343 73.5H301V90.5H343V73.5Z" fill="black"/>
<path opacity="0.2" d="M389 73.5H347V90.5H389V73.5Z" fill="black"/>
<path opacity="0.2" d="M210 317.5H168V334.5H210V317.5Z" fill="black"/>
<path opacity="0.2" d="M188 338.5H146V355.5H188V338.5Z" fill="black"/>
<path opacity="0.1" d="M411 155.29H369V172.29H411V155.29Z" fill="black"/>
<path opacity="0.1" d="M474 250.79H432V267.79H474V250.79Z" fill="black"/>
<path opacity="0.1" d="M228 276.789H186V293.789H228V276.789Z" fill="black"/>
<path opacity="0.1" d="M276 276.789H234V293.789H276V276.789Z" fill="black"/>
<path opacity="0.1" d="M280 252.79H238V269.79H280V252.79Z" fill="black"/>
<path opacity="0.1" d="M459 155.29H417V172.29H459V155.29Z" fill="black"/>
<path opacity="0.1" d="M300 170.5H258V187.5H300V170.5Z" fill="black"/>
<path opacity="0.1" d="M237 337.5H195V354.5H237V337.5Z" fill="black"/>
<path opacity="0.1" d="M367 52.5H325V69.5H367V52.5Z" fill="black"/>
<path opacity="0.2" d="M90 195.5H48V212.5H90V195.5Z" fill="black"/>
<path opacity="0.1" d="M114 174.5H72V191.5H114V174.5Z" fill="black"/>
<path opacity="0.1" d="M221 72.2891H179V89.2891H221V72.2891Z" fill="black"/>
<path opacity="0.2" d="M367 192.29H325V209.29H367V192.29Z" fill="black"/>
<path d="M299.562 449.885H27.8989" stroke="#263238" stroke-miterlimit="10" stroke-linecap="round" stroke-linejoin="round"/>
<path d="M487 449.885H470.216" stroke="#263238" stroke-miterlimit="10" stroke-linecap="round" stroke-linejoin="round"/>
<path d="M468.533 289.483H299.65V456.746H468.533V289.483Z" stroke="#263238" stroke-miterlimit="10" stroke-linecap="round" stroke-linejoin="round"/>
<path d="M456.013 316.116H312.171V369.073H456.013V316.116Z" stroke="#263238" stroke-miterlimit="10" stroke-linecap="round" stroke-linejoin="round"/>
<path d="M410.82 338.074H357.363V347.115H410.82V338.074Z" stroke="#263238" stroke-miterlimit="10" stroke-linecap="round" stroke-linejoin="round"/>
<path d="M456.013 383.282H312.171V436.239H456.013V383.282Z" stroke="#263238" stroke-miterlimit="10" stroke-linecap="round" stroke-linejoin="round"/>
<path d="M410.82 405.24H357.363V414.282H410.82V405.24Z" stroke="#263238" stroke-miterlimit="10" stroke-linecap="round" stroke-linejoin="round"/>
<path d="M474.659 279.079H296.15V289.397H474.659V279.079Z" stroke="#263238" stroke-miterlimit="10" stroke-linecap="round" stroke-linejoin="round"/>
<path d="M424.43 230.181H385.938L370.761 279.052H409.252L424.43 230.181Z" stroke="#263238" stroke-miterlimit="10" stroke-linecap="round" stroke-linejoin="round"/>
<path d="M417.305 236.669H389.033L377.885 272.565H406.158L417.305 236.669Z" stroke="#263238" stroke-miterlimit="10" stroke-linecap="round" stroke-linejoin="round"/>
<path d="M417.706 252.671L427.653 278.953H414.679L411.651 272.133" stroke="#263238" stroke-miterlimit="10" stroke-linecap="round" stroke-linejoin="round"/>
<path d="M49.1391 321.058C48.9081 319.838 48.4331 318.548 47.8771 317.175C47.3061 315.818 46.6851 314.349 45.9301 313.015C44.4251 310.344 42.7651 307.825 41.5951 306.41C41.3371 306.077 40.8121 306.345 40.9181 306.753C41.1391 307.637 41.4301 308.805 41.7611 310.132C42.0601 311.466 42.3481 312.978 42.6481 314.484C43.2861 317.466 43.7141 320.655 44.2621 322.921C44.6081 324.322 44.9341 325.643 45.2311 326.848C45.5451 328.043 45.8691 329.09 46.2001 329.96L43.2981 327.324C42.3321 326.444 41.2631 325.683 40.2511 324.857C40.6781 324.161 40.8831 322.607 40.6851 320.589C40.4511 318.617 39.9061 316.041 38.8061 313.416C38.3261 312.293 37.6641 311.039 36.8841 309.739C36.0921 308.458 35.1251 307.203 34.1541 305.956C32.1701 303.525 29.9681 301.362 28.5071 300.148C28.1781 299.864 27.7031 300.222 27.8931 300.607C28.3051 301.454 28.8501 302.549 29.4191 303.807C29.9511 305.071 30.5461 306.488 31.1571 307.94C32.2551 310.795 33.4041 313.783 34.2681 316.029C34.8251 317.391 35.3721 318.635 35.8991 319.731C36.3911 320.88 36.8641 321.882 37.3181 322.702L34.9431 321.083L32.4681 319.618C32.3971 319.23 32.1521 318.766 31.7551 318.248C31.3411 317.759 30.7661 317.232 30.0611 316.68C28.6691 315.548 26.6661 314.472 24.3581 313.627C22.3011 312.899 19.4831 312.438 16.8201 312.417C14.1581 312.372 11.6881 312.706 10.2471 313.06C9.91412 313.146 9.94812 313.738 10.2351 313.822C11.6001 314.215 13.8111 315.034 16.0641 315.996C18.3331 316.932 20.6351 318.079 22.4981 318.729C26.3641 320.138 29.8681 321.049 31.5231 320.767L33.9781 322.22C34.7841 322.723 35.5531 323.287 36.3431 323.817C35.4331 323.712 34.3961 323.654 33.2651 323.695C32.1091 323.778 30.8741 323.94 29.6161 324.193C28.5721 324.382 27.3571 324.792 26.1331 325.294C24.9041 325.81 23.6891 326.338 22.5151 327.042C21.3501 327.716 20.2741 328.416 19.3551 329.062C18.4301 329.736 17.6591 330.385 17.0921 330.868C16.8351 331.091 16.8351 331.62 17.0901 331.548C18.2131 331.203 20.1291 330.779 22.3401 330.354C23.4731 330.155 24.6431 329.949 25.7681 329.752C26.9081 329.588 28.0411 329.397 29.0661 329.164C31.3931 328.651 33.6161 328.207 35.4861 327.639C37.3311 327.113 38.7221 326.612 39.3471 326.015C40.3201 326.807 41.3411 327.54 42.2751 328.379L45.0631 330.912C44.1711 330.676 43.1341 330.477 42.0041 330.34C40.8801 330.194 39.6511 330.121 38.3251 330.204C36.1251 330.306 33.3371 330.835 30.7571 331.752C29.4761 332.188 28.2821 332.64 27.2301 333.109C26.1671 333.604 25.2681 334.069 24.5991 334.431C24.2951 334.597 24.2051 335.121 24.4821 335.105C25.7171 334.985 27.7231 335.011 30.0501 334.984C31.2131 334.969 32.3881 335.062 33.5881 335.061C34.8031 335.054 35.9671 335.047 37.0001 335.04C39.3591 334.998 41.7441 334.78 43.6301 334.578C45.5111 334.376 46.9961 334.046 47.6941 333.558C49.4861 335.324 51.0721 337.278 52.6811 339.211C50.9581 338.524 48.7301 337.806 46.0941 337.552C43.8671 337.359 41.0351 337.42 38.3211 337.895C35.6031 338.362 33.1951 338.98 31.7261 339.468C31.3891 339.583 31.2251 340.085 31.5131 340.112C32.7921 340.317 34.8971 340.654 37.1511 341.014C39.4001 341.506 42.0541 341.881 44.1161 342.185C46.4971 342.482 48.8551 342.641 50.8081 342.646C52.7121 342.702 54.2231 342.561 54.9751 342.161L57.2211 345.2L59.3101 348.348C57.6971 347.46 55.5301 346.535 52.9081 345.961C50.7271 345.482 47.8701 345.128 45.0761 345.244C42.3091 345.307 39.7871 345.573 38.2621 345.797C37.9031 345.864 37.6871 346.326 37.9601 346.423C39.1721 346.832 41.2151 347.5 43.5471 348.194C45.8101 349.021 48.3511 349.877 50.4791 350.358C52.8291 350.948 55.1511 351.379 57.0891 351.594C59.0341 351.803 60.5021 351.843 61.3041 351.513L63.2161 354.771L64.9711 358.115C63.4601 357.062 61.3921 355.923 58.8541 355.085C56.7671 354.356 53.9181 353.81 51.1251 353.569C48.3571 353.304 45.8241 353.239 44.1941 353.295C43.8301 353.304 43.5551 353.767 43.8391 353.89C45.1031 354.424 47.0331 355.406 49.3091 356.389C51.5291 357.394 53.8951 358.517 55.9771 359.198C58.2481 360.017 60.5131 360.684 62.4201 361.099C64.2791 361.535 65.7831 361.712 66.6031 361.477C67.6941 363.747 68.6121 366.091 69.5291 368.433C68.1351 367.221 66.1771 365.869 63.7911 364.748C61.7581 363.816 59.0311 362.955 56.2771 362.436C53.5561 361.892 51.0431 361.583 49.4261 361.479C49.0651 361.452 48.7411 361.882 49.0091 362.032C50.2061 362.68 52.0131 363.836 54.1701 365.034C56.1871 366.278 58.5591 367.582 60.4361 368.519C64.8741 370.574 69.0351 372.238 70.7631 371.961L71.8561 375.57L72.7881 379.222C71.5661 377.841 69.8001 376.261 67.5511 374.875C65.7321 373.692 62.9631 372.575 60.4011 371.73C57.7571 370.897 55.2341 370.346 53.7201 370.053C53.3691 369.988 52.9971 370.377 53.2311 370.556C54.2371 371.346 56.0981 372.617 57.9621 374.062C59.9121 375.483 61.9451 377.062 63.7781 378.185C67.8701 380.726 71.8381 382.899 73.5331 382.875C73.9871 385.332 74.3141 387.831 74.4191 390.296C74.4341 390.608 74.7621 390.838 75.1691 390.847C75.5751 390.855 75.9041 390.572 75.8881 390.246C75.7781 387.664 75.4441 385.134 74.9811 382.622C76.5731 382.175 79.5921 378.532 81.6331 373.282C82.4821 371.05 83.1801 367.966 83.5161 365.02C83.9361 362.037 83.9261 359.246 83.9771 357.483C83.9841 357.082 83.4101 357.009 83.2451 357.382C82.5111 358.993 81.3091 361.631 80.0451 364.406C78.7221 367.172 77.4271 369.96 76.5431 372.15C75.5281 374.836 74.6761 377.242 74.2541 379.057C73.9591 377.785 73.6171 376.524 73.2951 375.259L72.1601 371.512C72.9141 371.174 73.8961 370.025 74.8891 368.267C75.9081 366.5 76.8521 364.151 77.5511 361.457C78.2091 359.113 78.4061 356.075 78.5001 353.084C78.4721 350.173 78.3381 347.305 78.1131 345.626C78.0661 345.239 77.4871 345.234 77.3671 345.617C76.8691 347.28 75.9031 350.074 74.9531 352.912C74.0441 355.739 72.9301 358.73 72.3881 360.961C71.6781 363.747 71.1471 366.228 70.9611 368.082C70.0221 365.649 69.0651 363.22 67.9371 360.867C68.6471 360.442 69.5061 359.176 70.3131 357.308C71.0681 355.469 71.7531 353.03 72.1921 350.264C72.4921 347.937 72.4961 344.822 72.2181 341.902C71.8981 339.023 71.4801 336.204 71.0931 334.567C71.0081 334.191 70.4331 334.247 70.3511 334.639C70.0241 336.332 69.3361 339.203 68.6841 342.117C68.0651 345.019 67.3141 348.077 66.9811 350.374C66.6231 353.19 66.3251 355.738 66.3561 357.6L64.5431 354.135L62.5641 350.762C63.2121 350.27 63.9731 348.889 64.5311 346.979C65.0911 345.069 65.5211 342.576 65.6791 339.788C65.7581 337.436 65.4041 334.402 64.8951 331.491C64.2411 328.615 63.4221 325.86 62.8851 324.177C62.7671 323.79 62.1731 323.913 62.1531 324.316C61.9721 326.089 61.6761 328.993 61.3641 332.047C61.1101 335.02 60.5681 338.148 60.5121 340.445C60.4481 343.271 60.4071 345.843 60.6331 347.691L58.4751 344.431L56.1521 341.287C56.7581 340.723 57.3351 339.305 57.7491 337.313C58.1071 335.354 58.2431 332.828 58.0671 330.015C57.9601 327.57 57.0761 324.61 56.1601 321.693C55.1411 318.857 53.8671 316.218 53.0731 314.592C52.8731 314.234 52.3131 314.423 52.3491 314.833C52.4971 316.641 52.6021 319.65 52.7261 322.665C52.8591 325.685 52.7671 328.907 53.0061 331.191C53.2731 334.044 53.4831 336.624 53.9291 338.417C52.2571 336.413 50.6171 334.381 48.7541 332.544C49.2861 331.91 49.6821 330.435 49.8241 328.393C49.9751 326.349 49.7151 323.857 49.1391 321.058Z" fill="#A5C3E5"/>
<path d="M105.063 259.445C107.234 256.775 110.132 253.124 112.703 249.646C115.332 246.218 117.829 242.962 119.353 240.975C119.713 240.532 119.43 239.934 118.988 240.205C117.067 241.401 114.036 243.497 110.756 245.97C107.533 248.453 104.313 251.408 101.878 254.046C99.058 257.355 96.6471 260.745 94.9981 263.566L96.993 256.506L98.0101 252.982L99.18 249.505C100.861 249.711 105.927 245.516 111.774 239.919C116.802 235.035 124.267 226.361 127.799 222.846C128.186 222.433 127.949 221.806 127.494 222.04C125.513 223.074 122.15 224.806 118.766 227.024C117.066 228.125 115.259 229.295 113.636 230.534C112.017 231.775 110.483 233.041 109.178 234.252C107.536 235.737 106.09 237.286 104.801 238.79C103.502 240.29 102.346 241.739 101.386 243.062C102.709 239.733 103.882 236.342 105.328 233.063C106.254 232.418 107.639 230.48 109.213 227.697C110.922 224.976 112.703 221.35 114.735 217.449C115.605 215.704 116.513 213.662 117.507 211.546C117.982 210.474 118.467 209.379 118.954 208.279C119.453 207.185 119.954 206.087 120.447 205.006C122.402 200.668 124.298 196.6 125.554 194.172C125.839 193.619 125.361 193.271 124.925 193.741C123.033 195.776 120.118 199.265 117.265 203.202C116.561 204.193 115.846 205.2 115.134 206.202C114.467 207.235 113.802 208.264 113.152 209.27C111.847 211.285 110.743 213.289 109.849 215.074C107.921 218.774 106.585 222.401 105.553 225.343C104.614 228.33 104.149 230.712 104.16 232.056L103.077 234.577L102.091 237.138L100.119 242.259C100.279 240.662 100.388 238.847 100.441 236.877C100.465 234.902 100.491 232.788 100.518 230.602C100.523 228.771 100.426 226.702 100.274 224.538C100.133 222.38 99.9871 220.145 99.8461 217.988C99.4741 213.628 99.2491 209.588 99.0521 207.091C99.0101 206.523 98.335 206.747 98.182 207.381C97.862 208.764 97.439 210.59 96.958 212.667C96.555 214.763 96.129 217.103 95.736 219.49C95.307 221.861 95.093 224.362 94.863 226.674C94.659 228.999 94.5001 231.163 94.5781 233.051C94.7001 241.577 96.3611 248.033 97.7881 249.032L96.6351 252.46C96.2751 253.61 95.965 254.776 95.628 255.933L93.6461 262.89C93.6801 259.689 93.4081 255.628 92.9111 251.237C92.6371 247.613 91.7841 243.026 91.0801 238.731C90.3601 234.403 89.6911 230.387 89.2861 227.951C89.2011 227.394 88.54 227.675 88.433 228.314C88.076 231.162 87.427 235.766 87.141 240.621C86.902 245.5 86.769 250.52 87.283 254.271C87.773 258.518 88.467 262.185 89.436 264.941C90.342 267.68 91.269 269.444 92.033 269.873L91.2191 273.398L90.598 276.962L89.363 284.093C89.057 280.907 88.3671 276.897 87.3891 272.565C86.7411 268.981 85.5121 264.515 84.3011 260.27C83.2501 256.082 82.1761 252.115 81.5141 249.689C81.3631 249.136 80.7461 249.486 80.7181 250.141C80.3751 255.886 80.3121 268.845 82.1251 276.185C83.8531 284.554 86.9661 290.547 88.5361 291.212C87.8641 295.996 87.79 300.83 87.543 305.649C87.19 304.084 86.7201 302.325 86.1481 300.431C85.8621 299.484 85.55 298.504 85.215 297.497C84.861 296.488 84.5281 295.457 84.2341 294.414C83.1931 290.921 81.4101 286.594 79.7921 282.494C78.3041 278.428 76.818 274.573 75.907 272.213C75.699 271.675 75.1221 272.091 75.1631 272.75C75.2671 274.185 75.405 276.079 75.562 278.234C75.748 280.376 75.9041 282.743 76.3551 285.191C76.7501 287.628 77.193 290.096 77.67 292.394C77.916 293.544 78.1391 294.649 78.4261 295.694C78.7421 296.743 79.061 297.726 79.379 298.619C80.839 302.69 82.358 306.14 83.784 308.591C85.272 311.022 86.564 312.544 87.405 312.801C87.361 317.613 87.4291 322.424 87.5081 327.234C86.5841 324.15 85.2201 320.347 83.4681 316.364C82.7561 314.696 81.8571 312.861 80.8691 310.977C80.3631 310.039 79.8481 309.085 79.3331 308.13C78.8361 307.145 78.339 306.16 77.851 305.192C75.792 301.247 73.8811 297.587 72.7221 295.366C72.4491 294.851 71.9281 295.334 72.0511 295.99C72.5931 298.859 73.5031 303.546 74.6501 308.274C75.9631 312.8 77.4441 317.479 78.9411 320.826C82.2801 328.467 85.991 333.925 87.68 334.377C87.829 339.186 88.0301 343.992 88.2711 348.797C87.2881 345.743 85.7231 341.992 83.8861 338.07C80.7311 331.532 74.7421 322.297 72.1101 318.225C71.8081 317.763 71.316 318.257 71.476 318.861C72.825 324.176 76.3191 336.109 79.4971 342.681C83.1041 350.197 86.983 355.533 88.683 355.93C88.998 360.731 89.336 365.53 89.751 370.323C88.64 367.305 86.9891 363.603 85.0111 359.745C81.6571 353.31 75.3411 344.288 72.5911 340.316C72.2781 339.865 71.798 340.375 71.973 340.972C73.518 346.224 77.3721 358.028 80.7771 364.496C84.6151 371.894 88.6781 377.103 90.3961 377.44C90.8631 382.218 91.374 386.99 91.989 391.759C92.066 392.361 92.46 392.806 92.862 392.748C93.264 392.69 93.524 392.166 93.447 391.568C92.836 386.831 92.326 382.072 91.861 377.313C93.473 376.825 96.468 370.914 99.243 363.112C101.595 356.37 104.188 344.727 105.36 339.657C105.494 339.078 104.981 338.63 104.699 339.081C102.225 343.016 96.7831 352.324 94.3861 359.106C92.8821 363.282 91.807 367.308 91.243 370.517C90.816 365.634 90.4731 360.744 90.1511 355.853C91.7851 355.421 94.9821 349.608 97.9971 341.897C100.581 335.232 103.527 323.691 104.886 318.675C105.035 318.101 104.533 317.638 104.24 318.078C101.652 321.918 95.8801 331.033 93.2761 337.735C91.6201 341.86 90.4541 345.848 89.7571 349.039C89.5061 344.144 89.3021 339.246 89.1491 334.347C90.7921 333.969 94.1721 328.26 97.4571 320.664C98.8401 317.386 100.406 312.883 101.756 308.592C103.269 304.511 104.599 300.756 105.37 298.466C105.547 297.946 105.07 297.473 104.756 297.859C103.378 299.552 101.125 302.425 98.809 305.768C98.231 306.604 97.645 307.464 97.076 308.344C96.541 309.254 96.0161 310.173 95.5131 311.084C94.5081 312.907 93.592 314.704 92.864 316.348C91.121 320.413 89.7411 324.359 88.9851 327.525C88.8991 322.625 88.831 317.723 88.875 312.822C89.699 312.662 91.012 311.185 92.541 308.814C94.122 306.462 96.0381 303.322 97.8601 299.785C98.2551 299.024 98.657 298.192 99.062 297.313C99.508 296.435 99.978 295.511 100.461 294.56C101.407 292.659 102.35 290.654 103.234 288.71C104.062 286.761 105.083 284.892 105.906 283.227C106.723 281.569 107.441 280.112 107.985 279.008C108.228 278.507 107.814 277.98 107.452 278.331C105.865 279.868 103.26 282.483 100.537 285.544C97.9491 288.608 95.4101 292.149 93.5961 295.235C93.0181 296.186 92.534 297.141 92.114 298.088C91.677 299.034 91.2681 299.969 90.8881 300.882C90.1291 302.708 89.4911 304.447 88.9981 306.005C89.2551 301.125 89.3121 296.23 89.9961 291.382C91.7211 291.231 95.658 286.053 100.349 279.468C104.126 273.688 110.038 263.911 112.709 259.78C113.005 259.303 112.65 258.733 112.252 259.047C110.505 260.424 107.63 262.771 104.594 265.538C101.728 268.332 98.7411 271.569 96.5961 274.439C94.1601 278.017 92.1341 281.643 90.7621 284.619L92.014 277.392L92.639 273.779L93.463 270.205C94.303 270.225 95.912 269.065 97.917 267.129C99.861 265.173 102.442 262.51 105.063 259.445Z" fill="#A5C3E5"/>
<path d="M143.46 315.331C148.061 313.361 154.695 309.4 157.549 307.791C157.878 307.61 157.645 307.094 157.248 307.127C155.513 307.284 152.67 307.639 149.627 308.202C146.635 308.809 143.404 309.595 141.092 310.58C138.197 311.762 135.694 313.153 133.942 314.441C135.552 311.758 137.252 309.132 138.956 306.51C140.466 307.263 145.382 306.21 150.838 304.379C153.185 303.587 156.046 302.268 158.695 301.098C161.328 299.879 163.751 298.849 165.183 298.212C165.512 298.08 165.315 297.558 164.928 297.541C163.233 297.469 160.416 297.518 157.383 297.812C154.361 298.122 151.135 298.695 148.757 299.505C145.793 300.474 143.243 301.74 141.392 302.901C142.711 301.03 144.013 299.145 145.39 297.317C147.089 297.054 150.507 293.749 154.09 289.501C154.88 288.553 155.749 287.448 156.6 286.223C157.471 285.023 158.384 283.766 159.272 282.543C161.027 280.065 162.857 277.877 164.051 276.544C164.318 276.237 163.987 275.746 163.613 275.92C161.967 276.651 159.268 278.044 156.712 279.93C155.405 280.847 154.159 281.894 152.971 282.914C151.838 283.972 150.761 285.006 149.94 285.999C146.456 290.124 144.462 294.284 144.393 296.195C142.971 298.055 141.656 299.991 140.297 301.895C140.754 299.794 141.03 296.988 141.22 293.893C141.346 291.287 141.225 287.879 141.11 284.592C141.011 281.315 140.903 278.155 140.901 276.207C140.901 275.763 140.293 275.694 140.117 276.12C139.401 277.989 138.271 281.033 137.446 284.265C136.569 287.491 135.951 290.904 135.821 293.545C135.515 299.565 136.536 304.507 137.736 305.69C136.058 308.275 134.378 310.858 132.794 313.5C133.089 311.354 133.243 308.565 133.206 305.469C133.138 302.861 132.812 299.514 132.383 296.274C131.972 293.032 131.585 289.972 131.349 288.108C131.298 287.68 130.697 287.653 130.575 288.074C129.528 291.793 127.655 300.199 127.806 305.44C127.921 311.436 129.142 316.289 130.443 317.425C128.874 320.076 127.37 322.763 125.89 325.464C126.122 323.328 126.077 320.504 125.902 317.435C125.524 312.293 123.694 304.013 123.004 300.319C122.92 299.9 122.325 299.906 122.238 300.328C121.419 304.025 120.127 312.468 120.513 317.67C120.932 323.627 122.389 328.426 123.734 329.498C122.274 332.21 120.919 334.975 119.537 337.725C119.672 335.58 119.533 332.774 119.192 329.708C118.589 324.595 116.366 316.441 115.445 312.806C115.34 312.395 114.746 312.428 114.68 312.849C114.412 314.704 114.027 317.749 113.791 320.963C113.605 324.201 113.497 327.574 113.831 330.181C114.503 336.09 116.178 340.85 117.563 341.852C116.215 344.622 115.009 347.459 113.756 350.273C113.778 348.123 113.522 345.331 113.028 342.269C112.648 339.728 111.755 336.428 110.882 333.333C110.015 330.25 109.105 327.331 108.539 325.549C108.41 325.143 107.824 325.202 107.784 325.627C107.41 329.328 106.809 337.818 107.694 343.013C108.619 348.918 110.586 353.588 112.003 354.503C110.859 357.365 109.734 360.235 108.718 363.147C108.568 360.984 108.171 358.22 107.511 355.185C106.94 352.638 105.948 349.428 104.881 346.34C103.871 343.289 102.837 340.393 102.196 338.622C102.05 338.218 101.465 338.309 101.443 338.741C101.211 342.519 101.021 351.09 102.214 356.248C103.495 362.134 105.726 366.653 107.234 367.482C106.252 370.406 105.388 373.37 104.575 376.349C104.267 374.206 103.654 371.471 102.786 368.473C101.331 363.511 97.8891 355.67 96.4881 352.179C96.3221 351.782 95.7401 351.91 95.7381 352.344C95.6631 356.139 96.0301 364.835 97.5761 369.939C99.2781 375.788 101.883 380.117 103.466 380.802C102.769 383.808 102.176 386.833 101.807 389.932C101.763 390.324 102.061 390.684 102.468 390.71C102.873 390.735 103.226 390.47 103.268 390.093C103.624 387.102 104.209 384.104 104.897 381.142C106.538 381.295 110.823 378.673 115.332 375.198C119.193 372.151 124.516 366.672 126.921 364.346C127.19 364.078 126.828 363.634 126.455 363.776C123.149 364.972 115.759 368.179 111.751 371.294C109.296 373.189 107.272 375.203 105.942 376.926C106.764 373.915 107.633 370.914 108.629 367.951C110.251 368.258 114.747 365.999 119.536 362.8C123.618 359.992 129.372 354.777 131.873 352.545C132.156 352.288 131.819 351.82 131.439 351.943C129.774 352.483 127.034 353.421 124.155 354.599C121.344 355.792 118.335 357.214 116.258 358.625C113.667 360.357 111.486 362.215 110.036 363.833C111.066 360.882 112.202 357.968 113.364 355.065C114.995 355.494 119.591 353.517 124.597 350.579C128.854 348.002 134.894 343.03 137.527 340.853C137.824 340.604 137.512 340.117 137.125 340.226C135.426 340.705 132.636 341.538 129.698 342.588C126.774 343.636 123.773 344.926 121.564 346.204C118.886 347.797 116.608 349.529 115.031 351.042C116.296 348.182 117.523 345.304 118.891 342.489C120.476 342.997 125.199 341.298 130.348 338.557C132.531 337.353 135.244 335.577 137.661 333.816C140.126 332.084 142.364 330.405 143.716 329.384C144.028 329.155 143.742 328.659 143.347 328.746C139.905 329.495 132.026 331.618 127.538 334.032C124.768 335.5 122.431 337.134 120.767 338.558C122.174 335.762 123.548 332.949 125.033 330.193C126.582 330.772 131.405 329.271 136.645 326.766C141.174 324.581 147.57 320.131 150.395 318.319C150.715 318.107 150.45 317.599 150.055 317.664C146.577 318.19 138.627 319.92 134.045 322.13C131.187 323.452 128.812 325.001 127.084 326.348C128.59 323.604 130.114 320.871 131.708 318.179C133.219 318.824 138.121 317.554 143.46 315.331Z" fill="#A5C3E5"/>
<path d="M82.8231 456.45H98.3781C110.681 451.05 119.718 433.172 119.718 411.934C119.718 402.992 118.112 394.649 115.339 387.576H65.8621C63.0891 394.649 61.4841 402.992 61.4841 411.934C61.4831 433.172 70.5201 451.05 82.8231 456.45Z" fill="#263238"/>
<path d="M317.338 235.89C317.338 235.89 314.324 232.054 311.036 230.41C307.748 228.766 300.898 227.396 300.898 227.396C300.898 227.396 306.926 226.026 311.583 227.122C316.241 228.218 319.529 232.876 319.529 232.876C319.529 232.876 318.159 230.958 316.241 225.204C314.323 219.45 314.323 207.121 314.323 207.121C314.323 207.121 318.981 212.327 321.173 218.628C323.365 224.93 323.913 230.409 323.913 230.409C323.913 230.409 323.365 220.819 325.009 215.34C326.653 209.86 331.311 203.011 331.311 203.011C331.311 203.011 331.585 215.066 329.667 221.642C327.749 228.218 326.927 231.231 326.927 231.231C326.927 231.231 328.571 226.025 332.681 222.19C336.791 218.354 346.654 215.066 346.654 215.066C346.654 215.066 341.996 223.559 338.982 226.299C335.968 229.039 332.954 232.053 332.954 232.053C332.954 232.053 336.242 229.587 341.996 229.587C347.75 229.587 354.599 233.423 354.599 233.423C354.599 233.423 334.598 233.149 330.762 236.437L317.338 235.89Z" fill="#A5C3E5"/>
<path d="M321.059 234.425L317.683 232.088" stroke="#263238" stroke-miterlimit="10" stroke-linecap="round" stroke-linejoin="round"/>
<path d="M324.694 236.243L320.02 223.778" stroke="#263238" stroke-miterlimit="10" stroke-linecap="round" stroke-linejoin="round"/>
<path d="M324.175 237.801L327.291 219.624" stroke="#263238" stroke-miterlimit="10" stroke-linecap="round" stroke-linejoin="round"/>
<path d="M324.694 236.243L333.523 225.336" stroke="#263238" stroke-miterlimit="10" stroke-linecap="round" stroke-linejoin="round"/>
<path d="M322.963 235.126L335.86 231.828" stroke="#263238" stroke-miterlimit="10" stroke-linecap="round" stroke-linejoin="round"/>
<path d="M340.324 278.716H312.936L311.701 268.781C310.8 261.53 310.756 254.198 311.572 246.938L312.936 234.802H340.324L341.674 246.678C342.499 253.93 342.466 261.254 341.577 268.498L340.324 278.716Z" fill="#263238"/>
<path d="M342.142 260.058L338.032 235.126L332.553 278.142L322.963 235.126L317.209 278.69L312.937 234.801" fill="#263238"/>
<path d="M342.142 260.058L338.032 235.126L332.553 278.142L322.963 235.126L317.209 278.69L312.937 234.801" stroke="white" stroke-miterlimit="10" stroke-linecap="round" stroke-linejoin="round"/>
<path d="M340.324 278.716H312.936L311.701 268.781C310.8 261.53 310.756 254.198 311.572 246.938L312.936 234.802H340.324L341.674 246.678C342.499 253.93 342.466 261.254 341.577 268.498L340.324 278.716Z" stroke="#263238" stroke-miterlimit="10"/>
<path d="M298.132 102.679L295.58 94.1133L297.301 102.532L289.119 105.811C289.06 105.247 288.908 104.622 288.679 104L292.061 97.5443L292.083 97.5023C292.161 97.3523 292.14 97.1773 292.044 97.0513L286.696 90.0723L291.125 97.2993L287.813 102.278C287.112 101.217 286.191 100.429 285.179 100.429C284.143 100.429 283.202 101.255 282.495 102.355L278.917 97.8913L282.698 90.3043L277.977 97.7233C277.892 97.8573 277.886 98.0343 277.978 98.1763L278.004 98.2163L281.694 103.956C281.476 104.536 281.329 105.12 281.259 105.657L273.443 102.531L275.167 94.1123L272.609 102.678C272.558 102.848 272.634 103.034 272.798 103.117L272.829 103.133L281.382 107.462C281.597 108.167 282.004 108.786 282.54 109.264L275.861 112.695L275.838 112.707C275.714 112.771 275.656 112.915 275.695 113.045L277.634 119.638L276.327 113.158L283.643 110.188C283.525 110.388 283.446 110.611 283.412 110.851C283.359 110.867 283.307 110.888 283.257 110.918C283.237 110.93 283.218 110.944 283.2 110.958L278.344 114.707L278.315 114.729C278.213 114.808 278.171 114.937 278.197 115.057L279.635 121.666L278.911 115.183L283.754 112.197C284.087 112.644 284.616 112.938 285.216 112.938C285.881 112.938 286.458 112.579 286.778 112.047C286.791 112.056 286.801 112.067 286.815 112.075L291.844 115.182L291.121 121.665L292.556 115.056C292.582 114.937 292.54 114.807 292.438 114.728L292.409 114.706L287.564 110.957C287.546 110.943 287.526 110.929 287.507 110.917C287.355 110.823 287.18 110.8 287.019 110.836C286.971 110.518 286.843 110.23 286.653 109.987C286.671 109.98 286.691 109.974 286.709 109.967C286.768 110.024 286.837 110.071 286.917 110.104L294.421 113.157L293.116 119.637L295.051 113.044C295.089 112.913 295.032 112.77 294.908 112.706L294.884 112.694L287.966 109.131C288.37 108.733 288.686 108.249 288.891 107.71L297.917 103.131L297.948 103.115C298.107 103.035 298.183 102.849 298.132 102.679Z" fill="#263238"/>
<path d="M285.308 101.199V8" stroke="#263238" stroke-miterlimit="10"/>
<path d="M238.5 479C289.586 479 331 475.642 331 471.5C331 467.358 289.586 464 238.5 464C187.414 464 146 467.358 146 471.5C146 475.642 187.414 479 238.5 479Z" fill="#263238" stroke="#263238" stroke-miterlimit="10"/>
<path d="M225.684 97.8124C225.684 97.8124 232.089 95.8494 232.661 89.1614C233.233 82.4734 228.673 73.6174 211.884 69.5594C195.096 65.5014 171.281 72.9074 162.05 86.3904C146.038 109.778 158.8 130.938 167.287 137.067C175.774 143.195 181.88 142.896 181.534 145.397C181.189 147.898 178.376 149.426 178.376 149.426C178.376 149.426 180.498 152.9 185.279 153.789C190.06 154.678 196.834 149.795 197.835 142.92C198.837 136.045 197.038 130.488 196.636 126.267C196.234 122.046 216.419 102.141 217.556 100.522C218.696 98.9044 225.684 97.8124 225.684 97.8124Z" fill="#263238" stroke="#263238" stroke-miterlimit="10"/>
<path d="M193.673 134.505L197.305 152.759L216.838 148.776L216.714 143.31L193.577 132.4L193.673 134.505Z" fill="white" stroke="#263238" stroke-miterlimit="10"/>
<path d="M216.555 86.4688C216.555 86.4688 212.378 95.7927 205.33 103.859C198.282 111.925 188.85 116.557 188.85 116.557L180.07 122.693C180.07 122.693 181.357 126.068 184.514 128.81C187.671 131.552 191.373 131.018 191.373 131.018C191.373 131.018 195.965 141.183 203.863 144.549C211.761 147.915 224.619 147.876 227.727 144.738C230.835 141.601 233.291 123.369 232.608 115.619C231.925 107.869 228.867 103.296 226.601 97.6637C224.335 92.0317 216.555 86.4688 216.555 86.4688Z" fill="white" stroke="#263238" stroke-miterlimit="10"/>
<path d="M249.163 96.4629L242.654 100.248" stroke="#263238" stroke-miterlimit="10"/>
<path d="M245.929 108.898L249.879 108.717" stroke="#263238" stroke-miterlimit="10"/>
<path d="M245.339 116.155L251.583 117.281" stroke="#263238" stroke-miterlimit="10"/>
<path d="M222.563 104.424C222.563 104.424 222.691 108.839 224.097 110.016C225.502 111.194 228.798 111.372 228.986 114.688C229.174 118.004 226.185 118.944 224.007 118.459" stroke="#263238" stroke-miterlimit="10"/>
<path d="M215.994 133.847C215.423 133.816 214.851 133.645 214.332 133.32C212.693 132.296 212.194 130.136 213.218 128.497C214.793 125.976 218.188 123.921 221.667 123.381C224.873 122.886 227.935 123.715 230.289 125.719C231.761 126.972 231.939 129.181 230.686 130.653C229.433 132.126 227.224 132.302 225.752 131.05C224.938 130.356 223.952 130.11 222.738 130.299C220.851 130.591 219.429 131.766 219.154 132.206C218.454 133.326 217.225 133.914 215.994 133.847Z" fill="#263238" stroke="#263238" stroke-miterlimit="10"/>
<path d="M211.28 110.247C211.462 111.136 211.218 111.936 210.737 112.034C210.256 112.132 209.718 111.491 209.537 110.603C209.356 109.714 209.599 108.914 210.08 108.816C210.562 108.717 211.099 109.358 211.28 110.247Z" fill="#263238"/>
<path d="M226.732 108.082C226.914 108.971 226.67 109.771 226.189 109.869C225.707 109.967 225.17 109.327 224.989 108.438C224.808 107.549 225.051 106.749 225.532 106.651C226.013 106.553 226.55 107.194 226.732 108.082Z" fill="#263238"/>
<path d="M209.341 99.1348C207.441 99.4038 204.754 100.461 202.467 103.906" stroke="white" stroke-miterlimit="10"/>
<path d="M211.786 99.1841C211.786 99.1841 210.794 98.9291 209.342 99.1351" stroke="#263238" stroke-miterlimit="10"/>
<path d="M221.944 100.97C221.944 100.97 224.417 97.9538 227.84 100.659" stroke="#263238" stroke-miterlimit="10"/>
<path d="M200.396 111.143C200.396 111.143 200.181 115.121 204.962 116.009" stroke="#263238" stroke-miterlimit="10"/>
<path d="M207.848 117.005L215.091 115.087" stroke="#263238" stroke-miterlimit="10"/>
<path d="M187.031 117.559C187.031 117.559 191.886 120.971 192.571 119.958C193.256 118.945 193.539 113.711 193.539 113.711L187.031 117.559Z" fill="#263238" stroke="#263238" stroke-miterlimit="10"/>
<path d="M214.027 133.083C214.128 133.162 214.22 133.249 214.332 133.319C214.851 133.644 215.423 133.815 215.994 133.846C217.225 133.913 218.454 133.325 219.154 132.205C219.347 131.896 220.112 131.23 221.199 130.757C217.118 129.394 214.908 131.739 214.027 133.083Z" fill="white" stroke="#263238" stroke-miterlimit="10"/>
<path d="M269.525 273.468C269.525 273.468 276.666 336.582 273.655 355.953C270.643 375.325 254.804 411.993 254.804 411.993L232.932 407.994C232.932 407.994 242.58 362.555 242.746 353.295C242.911 344.034 229.103 305.612 231.743 279.21C234.381 252.809 267.302 266.561 269.525 273.468Z" fill="#263238" stroke="#263238" stroke-miterlimit="10"/>
<path d="M250.365 415.64L240.831 444.763L226.605 442.255L233.71 411.41L250.365 415.64Z" fill="white" stroke="#263238" stroke-miterlimit="10"/>
<path d="M240.831 444.763C240.831 444.763 241.062 449.981 242.352 451.962C243.642 453.944 248.903 457.057 255.454 462.152C262.005 467.247 266.567 469.92 259.699 471.845C252.831 473.769 236.875 469.979 229.193 468.855C221.511 467.731 218.462 468.545 218.087 464.798C217.712 461.051 226.604 442.255 226.604 442.255L240.831 444.763Z" fill="#2C8DD2" stroke="#263238" stroke-miterlimit="10"/>
<path d="M229.193 468.855C221.511 467.731 218.462 468.546 218.087 464.798C218.037 464.3 218.154 463.532 218.389 462.583C226.856 464.932 239.091 467.951 247.598 468.785C254.65 469.476 259.93 468.953 262.805 468.493C263.617 469.886 262.902 470.947 259.698 471.845C252.831 473.769 236.876 469.979 229.193 468.855Z" fill="white" stroke="#263238" stroke-miterlimit="10"/>
<path d="M257.214 410.661L254.42 417.113C254.052 417.963 253.137 418.439 252.23 418.251L231.61 413.999C230.587 413.788 229.91 412.81 230.073 411.778L231.399 403.371C231.581 402.214 232.733 401.476 233.861 401.792L255.949 407.998C257.089 408.321 257.685 409.574 257.214 410.661Z" fill="#787878" stroke="#263238" stroke-miterlimit="10"/>
<path d="M163.696 398.979C163.696 398.979 155.653 404.091 154.058 406.224C152.463 408.357 153.609 421.363 156.16 428.898C158.711 436.433 167.631 442.463 171.339 442.294C175.047 442.125 175.964 438.846 174.399 433.583C172.835 428.321 170.712 419.699 170.931 415.643C171.15 411.587 171.51 404.949 171.51 404.949L163.696 398.979Z" fill="#2C8DD2" stroke="#263238" stroke-miterlimit="10"/>
<path d="M171.339 442.296C172.945 442.223 174.026 441.564 174.61 440.414C164.861 439.302 160.953 433.331 158.025 426.055C155.765 420.439 155.368 410.108 155.318 404.961C154.77 405.438 154.321 405.874 154.059 406.226C152.464 408.359 153.61 421.365 156.161 428.9C158.711 436.435 167.631 442.465 171.339 442.296Z" fill="white" stroke="#263238" stroke-miterlimit="10"/>
<path d="M176.743 383.412L162.141 400.375C162.141 400.375 160.407 405.089 164.363 407.152C168.32 409.215 170.612 407.86 170.612 407.86L187.636 393.987L176.743 383.412Z" fill="white" stroke="#263238" stroke-miterlimit="10"/>
<path d="M184.229 374.942C184.229 374.942 181.708 373.696 179.804 374.703C177.9 375.71 173.336 378.052 173.196 380.633C173.056 383.214 174.621 388.477 180.282 393.221C185.943 397.965 188.155 398.085 189.69 397.058C191.225 396.031 198.531 390.879 199.368 389.075C200.205 387.271 198.152 384.201 196.737 383.015C195.321 381.829 184.229 374.942 184.229 374.942Z" fill="#787878" stroke="#263238" stroke-miterlimit="10"/>
<path d="M194.475 280.94C194.475 280.94 195.471 289.87 203.324 308.787C211.177 327.704 214.575 340.093 214.575 340.093C214.575 340.093 181.587 375.908 180.73 378.08C179.873 380.253 186.809 388.765 191.972 389.044C197.135 389.323 247.574 352.234 248.96 347.131C250.346 342.028 233.584 269.658 233.584 269.658C233.584 269.658 208.14 267.625 194.475 280.94Z" fill="#263238" stroke="#263238" stroke-miterlimit="10"/>
<path d="M238.808 291.552C242.108 307.517 248.988 341.188 249.07 344.796C249.178 349.544 235.877 359.403 235.877 359.403" stroke="#666666" stroke-miterlimit="10"/>
<path d="M237.08 283.229C237.08 283.229 237.353 284.537 237.818 286.772" stroke="#666666" stroke-miterlimit="10"/>
<path d="M192.353 277.443L194.417 285.566C194.417 285.566 218.585 273.854 235.31 274.759C252.035 275.664 272.708 282.29 272.708 282.29L272.796 276.036C272.796 276.036 266.812 270.955 252.218 267.662C237.625 264.369 217.836 264.55 208.343 268.794C198.85 273.037 192.353 277.443 192.353 277.443Z" fill="#2C8DD2" stroke="#263238" stroke-miterlimit="10"/>
<path d="M221.364 153.016C221.06 154.001 189.558 167.068 185.47 168.6C181.381 170.131 176.389 169.861 170.863 174.82C165.337 179.779 129.26 212.133 128.653 214.103C128.046 216.073 126.197 222.977 132.384 224.314C138.571 225.65 177.684 201.478 177.684 201.478C177.684 201.478 183.904 206.822 186.198 210.701C188.492 214.581 194.697 238.763 194.697 238.763C194.697 238.763 188.873 277.004 190.512 279.096C192.151 281.188 194.229 279.798 194.229 279.798C194.229 279.798 214.835 269.146 233.584 269.659C252.333 270.172 270.496 276.914 272.244 277.008C273.991 277.103 275.388 274.424 275.274 271.914C275.159 269.404 274.597 249.797 264.002 235.001C258.229 226.94 250.7 203.174 250.7 203.174C250.7 203.174 245.095 172.576 240.669 161.822C236.243 151.067 225.05 149.711 223.748 150.642C222.444 151.572 221.364 153.016 221.364 153.016Z" fill="#2C8DD2" stroke="#263238" stroke-miterlimit="10"/>
<path d="M177.683 201.477L162.452 191.414L171.081 199.921L167.529 207.42L177.683 201.477Z" fill="#263238" stroke="#263238" stroke-miterlimit="10"/>
<path d="M199.742 215.773C209.62 219.451 228.745 240.532 240.42 242.209" stroke="#263238" stroke-miterlimit="10"/>
<path d="M192.942 213.172C192.942 213.172 193.772 213.503 195.234 214.067" stroke="#263238" stroke-miterlimit="10"/>
<path d="M250.861 247.583C252.094 247.791 253.337 247.99 254.583 248.177" stroke="#263238" stroke-miterlimit="10"/>
<path d="M224.104 241.698C224.104 241.698 234.278 244.515 246.51 246.807" stroke="#263238" stroke-miterlimit="10"/>
<path d="M217.206 145.857C217.206 145.857 192.207 149.964 192.139 151.22C192.071 152.476 193.66 165.79 194.894 166.277C196.127 166.764 220.103 154.412 220.103 154.412L217.206 145.857Z" fill="#2C8DD2" stroke="#263238" stroke-miterlimit="10"/>
<path d="M217.732 147.775L217.742 186.41C217.742 186.41 197.735 175.879 186.627 167.719C175.52 159.559 170.79 153.844 169.998 152.961C169.206 152.078 166.887 132.845 166.745 131.578C166.604 130.311 164.573 125.161 162.779 123.385C160.985 121.608 154.529 120.629 153.216 121.608C151.903 122.587 152.311 122.819 154.58 123.572C156.849 124.325 157.477 124.359 158.688 125.264C159.899 126.169 161.834 129.214 161.834 129.214C161.834 129.214 156.945 126.43 154.433 126.294C151.921 126.158 146.63 126.922 147.598 128.444C148.565 129.966 153.007 129.367 154.263 129.434C155.519 129.502 158.139 131.534 159.14 132.427C160.141 133.321 160.317 133.961 160.317 133.961C160.317 133.961 154.766 131.771 152.673 131.658C150.579 131.545 146.93 133.027 147.105 133.666C147.28 134.305 147.688 134.537 149.781 134.651C151.875 134.764 153.968 134.878 153.968 134.878L159.066 137.673C159.066 137.673 154.251 137.413 153.193 137.565C152.135 137.718 148.74 138.374 149.102 139.443C149.464 140.512 154.138 139.505 154.138 139.505L159.7 141.486C159.7 141.486 159.049 149.64 160.984 152.684C162.919 155.728 165.748 157.771 165.748 157.771C165.748 157.771 193.031 189.063 197.156 194.325C201.281 199.588 209.955 206.146 215.008 209.779C218.788 212.497 226.285 214.799 229.041 214.318C231.797 213.837 234.977 209.39 235.385 201.853C235.793 194.316 238.867 164.666 238.51 159.608C238.154 154.549 239.144 147.884 232.043 143.3C224.941 138.716 219.758 141.375 217.732 147.775Z" fill="white" stroke="#263238" stroke-miterlimit="10"/>
<path d="M238.509 159.608C238.153 154.549 239.143 147.884 232.042 143.3C224.941 138.716 219.758 141.376 217.732 147.775L217.742 186.41C217.742 186.41 213.965 184.422 208.784 181.505L199.003 196.457C203.502 201.261 210.619 206.623 215.008 209.778C218.788 212.496 226.285 214.798 229.041 214.317C231.797 213.836 234.977 209.389 235.385 201.852C235.791 194.317 238.865 164.667 238.509 159.608Z" fill="#2C8DD2" stroke="#263238" stroke-miterlimit="10"/>
<path d="M217.741 186.411C217.741 186.411 229.25 191.023 231.824 193.892Z" fill="white"/>
<path d="M217.741 186.411C217.741 186.411 229.25 191.023 231.824 193.892" stroke="#263238" stroke-miterlimit="10"/>
<path d="M141.29 207.77L186.472 247.268C186.472 247.268 200.223 233.741 202.47 233.863C204.717 233.985 211.652 235.361 213.11 236.191C214.567 237.021 217.037 237.655 216.733 238.64C216.429 239.625 214.945 239.294 212.989 238.437C211.032 237.58 203.82 236.689 203.82 236.689C203.82 236.689 209.177 239.482 211.093 241.088C213.009 242.694 215.829 246.101 215.289 246.823C214.749 247.545 212.874 245.19 210.944 243.834C209.014 242.478 203.354 240.669 203.354 240.669C203.354 240.669 208.616 245.21 209.534 246.762C210.451 248.314 212.118 249.906 210.607 250.075C209.096 250.244 205.581 245.797 204.36 245.23C203.139 244.663 200.96 243.294 200.96 243.294C200.96 243.294 204.158 248.975 204.104 249.974C204.05 250.973 203.051 250.919 201.884 249.353C200.717 247.788 199.118 244.947 199.118 244.947C199.118 244.947 196.864 249.582 192.958 252.375C189.051 255.168 185.293 255.215 183.364 253.859C181.434 252.503 127.616 224.555 125.463 222.686C123.311 220.817 126.207 214.575 133.958 209.343" fill="#2C8DD2"/>
<path d="M141.29 207.77L186.472 247.268C186.472 247.268 200.223 233.741 202.47 233.863C204.717 233.985 211.652 235.361 213.11 236.191C214.567 237.021 217.037 237.655 216.733 238.64C216.429 239.625 214.945 239.294 212.989 238.437C211.032 237.58 203.82 236.689 203.82 236.689C203.82 236.689 209.177 239.482 211.093 241.088C213.009 242.694 215.829 246.101 215.289 246.823C214.749 247.545 212.874 245.19 210.944 243.834C209.014 242.478 203.354 240.669 203.354 240.669C203.354 240.669 208.616 245.21 209.534 246.762C210.451 248.314 212.118 249.906 210.607 250.075C209.096 250.244 205.581 245.797 204.36 245.23C203.139 244.663 200.96 243.294 200.96 243.294C200.96 243.294 204.158 248.975 204.104 249.974C204.05 250.973 203.051 250.919 201.884 249.353C200.717 247.788 199.118 244.947 199.118 244.947C199.118 244.947 196.864 249.582 192.958 252.375C189.051 255.168 185.293 255.215 183.364 253.859C181.434 252.503 127.616 224.555 125.463 222.686C123.311 220.817 126.207 214.575 133.958 209.343" stroke="#263238" stroke-miterlimit="10"/>
<path d="M213.109 236.192C211.652 235.362 204.716 233.985 202.469 233.864C200.222 233.743 186.471 247.269 186.471 247.269L154.974 219.967L146.533 234.243C159.027 240.579 182.288 253.107 183.361 253.861C185.291 255.217 189.049 255.17 192.955 252.377C196.862 249.584 199.115 244.949 199.115 244.949C199.115 244.949 200.714 247.789 201.881 249.355C203.048 250.92 204.047 250.974 204.101 249.976C204.155 248.977 200.957 243.296 200.957 243.296C200.957 243.296 203.136 244.666 204.357 245.232C205.578 245.799 209.093 250.245 210.604 250.077C212.115 249.908 210.449 248.316 209.531 246.764C208.614 245.212 203.351 240.671 203.351 240.671C203.351 240.671 209.012 242.479 210.941 243.836C212.871 245.192 214.746 247.547 215.286 246.825C215.826 246.103 213.006 242.696 211.09 241.09C209.174 239.484 203.817 236.691 203.817 236.691C203.817 236.691 211.029 237.582 212.986 238.439C214.942 239.296 216.427 239.627 216.73 238.642C217.036 237.656 214.566 237.021 213.109 236.192Z" fill="white" stroke="#263238" stroke-miterlimit="10"/>
</svg>
