<svg width="700" height="500" viewBox="0 0 700 500" fill="none" xmlns="http://www.w3.org/2000/svg">
<path d="M380 383.968C508.547 383.968 612.754 309.685 612.754 218.053C612.754 126.42 508.547 52.1377 380 52.1377C251.454 52.1377 147.246 126.42 147.246 218.053C147.246 309.685 251.454 383.968 380 383.968Z" fill="#F5F5FF"/>
<path d="M176.685 460.989C235.366 460.989 282.936 453.671 282.936 444.643C282.936 435.615 235.366 428.297 176.685 428.297C118.004 428.297 70.4341 435.615 70.4341 444.643C70.4341 453.671 118.004 460.989 176.685 460.989Z" fill="#DFDFEB"/>
<path d="M350.35 464.258C456.36 464.258 542.298 456.94 542.298 447.912C542.298 438.885 456.36 431.566 350.35 431.566C244.34 431.566 158.402 438.885 158.402 447.912C158.402 456.94 244.34 464.258 350.35 464.258Z" fill="#DFDFEB"/>
<path d="M298.132 44.9385C278.311 45.4785 261.911 61.3545 260.771 81.1505C260.1 92.7905 264.611 103.382 272.203 110.855C273.325 111.959 273.846 113.533 273.584 115.085L270.733 131.956L288.275 121.735C289.274 121.153 290.451 120.939 291.585 121.168C295.873 122.033 300.416 122.192 305.099 121.483C322.428 118.858 335.948 104.512 337.546 87.0585C339.674 63.7965 321.094 44.3135 298.132 44.9385Z" fill="#C7D9EE"/>
<path d="M297.451 96.7551L297.343 87.5502C298.686 87.2232 299.911 86.7971 301.019 86.2701C302.126 85.7441 303.098 85.1362 303.933 84.4452C304.768 83.7562 305.467 82.9841 306.031 82.1301C306.594 81.2771 307.019 80.3601 307.311 79.3801C307.601 78.4001 307.746 77.3652 307.746 76.2762C307.746 74.7152 307.364 73.2442 306.601 71.8642C305.839 70.4852 304.749 69.3682 303.333 68.5142C301.917 67.6612 300.228 67.2342 298.268 67.2342C296.162 67.2342 294.21 67.8152 292.413 68.9771C290.615 70.1401 289.244 72.1182 288.301 74.9142L287.321 74.2602C288.156 71.6102 289.554 69.5762 291.515 68.1602C293.476 66.7432 295.708 66.0352 298.214 66.0352C300.357 66.0352 302.236 66.4902 303.852 67.3972C305.467 68.3052 306.729 69.5312 307.637 71.0742C308.544 72.6172 308.999 74.3512 308.999 76.2762C308.999 77.7292 308.754 79.0902 308.264 80.3612C307.774 81.6322 307.083 82.7942 306.194 83.8472C305.304 84.9012 304.224 85.8172 302.953 86.5972C301.681 87.3792 300.248 87.9681 298.65 88.3681L298.542 96.7561L297.451 96.7551ZM296.798 103.618C296.798 103.146 296.925 102.756 297.179 102.447C297.433 102.139 297.779 101.984 298.214 101.984C298.722 101.984 299.085 102.13 299.304 102.42C299.522 102.711 299.63 103.11 299.63 103.618C299.63 104.054 299.512 104.435 299.276 104.762C299.039 105.089 298.685 105.252 298.213 105.252C297.74 105.252 297.387 105.106 297.15 104.816C296.913 104.526 296.798 104.127 296.798 103.618Z" fill="black"/>
<path d="M186.716 421.639L188.424 434.512C188.424 434.512 220.445 448.152 217.475 448.349C214.505 448.547 168.489 445.577 168.489 445.577L171.197 422.207L186.716 421.639Z" fill="black"/>
<path d="M177.796 211.484C177.796 211.484 175.244 236.044 173.331 237.32C171.417 238.596 168.866 239.234 168.866 239.234L173.012 211.166L177.796 211.484Z" stroke="#424242" stroke-miterlimit="10"/>
<path d="M127.231 194.602C127.231 194.602 114.252 223.909 118.02 240.237L189.966 229.263L188.465 198.817L127.231 194.602Z" fill="black"/>
<path d="M189.966 229.263C189.966 229.263 190.373 299.578 190.873 324.076C191.373 348.574 195.657 424.23 195.657 424.23C195.657 424.23 182.222 431.637 168.229 425.651C167.11 425.172 155.056 228.607 155.056 228.607L189.966 229.263Z" fill="black"/>
<path d="M119.212 231.533L88.853 424.872C88.853 424.872 102.111 437.293 118.858 425.988L149.728 268.065L164.719 258L166.952 229.193L119.212 231.533Z" fill="black"/>
<path d="M111.24 420.087L114.004 431.193C114.004 431.193 134.205 455.489 131.228 455.489C128.251 455.489 95.0791 440.449 95.0791 440.449L99.3321 417.311L111.24 420.087Z" fill="black"/>
<path d="M130.301 206.465C130.301 206.465 111.169 286.903 96.947 428.92" stroke="#424242" stroke-miterlimit="10"/>
<path d="M143.42 215.116C143.42 215.116 136.721 231.863 125.277 232.142" stroke="#424242" stroke-miterlimit="10"/>
<path d="M171.716 426.811L161.928 260.381L171.49 250.353" stroke="#424242" stroke-miterlimit="10"/>
<path d="M171.588 110.399C176.566 109.38 180.199 108.649 180.199 108.649L211.247 125.606C211.3 125.635 211.353 125.664 211.406 125.693C221.58 131.307 226.077 140.832 225.809 154.181L227.317 173.518L210.492 159.865L196.269 187.292L187.236 219.671C139.032 237.2 120.308 205.728 120.308 205.728L136.279 171.155L142.73 139.225C145.795 122.84 155.26 113.742 171.588 110.399Z" fill="#79AADC"/>
<path d="M431.714 165.027C431.707 165.054 431.698 165.087 431.688 165.124C431.647 165.274 431.583 165.499 431.491 165.796C431.308 166.39 431.014 167.271 430.575 168.408C429.698 170.682 428.24 173.978 425.924 178.051C421.353 186.092 413.435 197.16 400.03 209.35C400.022 209.322 400.013 209.292 400.005 209.261C399.865 208.743 399.724 207.88 399.762 206.562C399.837 203.923 400.629 199.476 403.553 192.35C406.449 185.295 413.38 177.302 419.763 171.692C422.952 168.89 425.972 166.712 428.246 165.551C429.394 164.965 430.296 164.668 430.911 164.642C431.213 164.629 431.4 164.683 431.511 164.753C431.591 164.805 431.664 164.885 431.714 165.027Z" fill="#A5C3E5" stroke="#15233A"/>
<path d="M432.232 165.021C432.232 165.021 407.925 180.156 399.841 210.196C399.841 210.196 397.984 220.557 400.981 229.829" stroke="#15233A" stroke-miterlimit="10" stroke-linecap="round"/>
<path d="M368.635 177.046C368.596 177.081 368.561 177.11 368.532 177.135C368.435 177.132 368.296 177.127 368.119 177.118C367.734 177.1 367.166 177.065 366.439 176.997C364.987 176.863 362.902 176.6 360.385 176.087C355.349 175.062 348.59 173.04 341.691 169.053C338.315 167.102 335.464 163.78 333.085 159.846C330.709 155.916 328.826 151.412 327.371 147.142C325.916 142.875 324.893 138.855 324.234 135.902C323.905 134.425 323.666 133.216 323.511 132.377C323.472 132.168 323.438 131.981 323.409 131.819C344.558 137.119 354.951 148.14 364.714 160.368L365.105 160.056L364.714 160.368C369.884 166.843 370.693 171.101 370.316 173.672C370.126 174.959 369.636 175.855 369.203 176.425C368.985 176.711 368.781 176.915 368.635 177.046Z" fill="#A5C3E5" stroke="#15233A"/>
<path d="M375.359 191.819C375.375 191.833 375.39 191.847 375.405 191.861C355.894 196.932 340.574 197.904 330.105 197.601C324.801 197.447 320.742 196.967 318.013 196.526C316.649 196.305 315.617 196.095 314.928 195.94C314.584 195.862 314.326 195.799 314.154 195.755C314.098 195.741 314.051 195.728 314.014 195.718C313.883 195.588 313.849 195.48 313.845 195.396C313.839 195.283 313.883 195.107 314.065 194.857C314.437 194.346 315.24 193.728 316.466 193.052C318.892 191.713 322.737 190.271 327.286 189.012C336.387 186.494 348.149 184.751 356.724 185.974L356.795 185.479L356.724 185.974C365.367 187.207 370.187 188.861 372.832 190.186C374.152 190.847 374.925 191.423 375.359 191.819Z" fill="#A5C3E5" stroke="#15233A"/>
<path d="M313.766 196.169C313.766 196.169 342.305 183.326 376.304 192.142C376.304 192.142 379.788 193.255 383.085 198.302" stroke="#15233A" stroke-miterlimit="10" stroke-linecap="round"/>
<path d="M394.172 225.125C394.181 225.142 394.19 225.158 394.199 225.174C374.652 230.214 359.097 228.409 348.408 225.332C343.007 223.777 338.846 221.897 336.039 220.408C334.636 219.664 333.572 219.017 332.86 218.559C332.504 218.329 332.237 218.147 332.059 218.023C331.971 217.961 331.904 217.913 331.861 217.882C331.839 217.866 331.823 217.854 331.813 217.846L331.81 217.844C331.613 217.676 331.548 217.534 331.531 217.425C331.513 217.313 331.536 217.156 331.666 216.94C331.938 216.484 332.586 215.925 333.639 215.31C335.716 214.095 339.098 212.813 343.189 211.712C351.368 209.512 362.222 208.082 370.805 209.306C379.348 210.525 385.267 214.631 389.055 218.436C390.95 220.339 392.31 222.166 393.195 223.514C393.637 224.188 393.961 224.742 394.172 225.125Z" fill="#A5C3E5" stroke="#15233A"/>
<path d="M331.498 218.235C331.498 218.235 358.827 207.555 394.932 225.499C394.932 225.499 399.171 227.721 402.467 232.768" stroke="#15233A" stroke-miterlimit="10" stroke-linecap="round"/>
<path d="M394.843 170.64C395.871 168.428 397.424 165.44 399.554 162.249C403.877 155.774 410.544 148.512 419.976 145.168C420.011 145.168 420.057 145.171 420.11 145.177C420.241 145.192 420.388 145.225 420.512 145.289C420.63 145.348 420.708 145.425 420.751 145.532C420.796 145.643 420.83 145.856 420.721 146.236C420.497 147.02 419.722 148.328 417.776 150.427C415.843 152.511 412.799 155.332 408.113 159.141C400.938 164.973 396.995 168.501 394.843 170.64Z" fill="black" stroke="#15233A"/>
<path d="M406.936 151.753C410.251 149.49 413.152 147.948 415.374 146.928C414.721 147.562 414.09 148.276 413.475 149.049C411.586 151.426 409.803 154.43 407.99 157.581C407.744 158.009 407.497 158.439 407.249 158.871C403.825 164.847 400.222 171.134 395.474 174.962C390.343 179.099 386.506 180.531 383.992 180.948C382.734 181.157 381.801 181.113 381.195 181.022C381.078 181.005 380.974 180.986 380.881 180.966C389.62 165.864 399.362 156.924 406.936 151.753Z" fill="#A5C3E5" stroke="#15233A"/>
<path d="M411.312 252.328C401.698 229.382 387.989 203.135 368.696 177.638C368.696 177.638 364.006 170.604 347.331 152.081C330.656 133.558 322.79 131.151 322.79 131.151" stroke="#15233A" stroke-miterlimit="10" stroke-linecap="round"/>
<path d="M417.271 145.571C417.271 145.571 396.149 153.22 380.132 181.265C376.252 188.059 380 193.873 383.084 198.301" stroke="#15233A" stroke-miterlimit="10" stroke-linecap="round"/>
<path d="M418.092 205.979C424.36 205.979 430.43 203.779 435.243 199.763L448.598 188.619C453.404 184.609 459.112 182.46 464.961 182.46H531.239C537.253 182.46 542.129 187.336 542.129 193.35V205.978V433.294C542.129 443.672 533.716 452.086 523.337 452.086H192.945C184.873 452.086 178.329 445.542 178.329 437.47V220.595C178.329 212.523 184.873 205.979 192.945 205.979H418.092Z" fill="#15233A"/>
<path d="M178.33 438.695C178.33 438.695 200.815 396.518 203.064 391.674L264.515 266.482C266.06 263.155 269.394 261.027 273.062 261.027H501.42C509.722 261.027 521.729 256.675 528.103 251.356L537.318 243.667C542.124 239.657 547.833 237.508 553.681 237.508H616.755C623.469 237.508 628.029 244.328 625.464 250.533L549.193 435.002C544.918 445.342 534.832 452.086 523.643 452.086H182.454C180.23 452.086 178.176 450.181 178.177 447.957L178.33 438.695Z" fill="#2C8DD2"/>
<path d="M271.214 272.931L181.042 448.218" stroke="black" stroke-miterlimit="10" stroke-linejoin="round"/>
<path d="M308.37 303.138H386.045C388.163 303.138 390.134 302.072 391.271 300.312C393.895 296.251 390.933 290.936 386.045 290.936H308.37C306.252 290.936 304.281 292.002 303.144 293.761C300.519 297.823 303.482 303.138 308.37 303.138Z" stroke="black" stroke-miterlimit="10" stroke-linejoin="round"/>
<path d="M453.669 363.384L393.192 399.414" stroke="black" stroke-miterlimit="10" stroke-linecap="round" stroke-linejoin="round"/>
<path d="M404.223 361.646L442.224 399.63" stroke="black" stroke-miterlimit="10" stroke-linecap="round" stroke-linejoin="round"/>
<path d="M433.327 414.239C457.532 407.543 473.054 387.291 467.995 369.003C462.937 350.716 439.214 341.319 415.008 348.014C390.803 354.71 375.281 374.963 380.34 393.25C385.398 411.537 409.121 420.934 433.327 414.239Z" stroke="black" stroke-miterlimit="10" stroke-linecap="round" stroke-linejoin="round"/>
<path d="M193.761 192.146L204.976 204.74C204.976 204.74 194.455 217.154 183.769 209.801L182.055 207.342L193.761 192.146Z" fill="#79AADC"/>
<path d="M167.701 117.002C167.701 117.002 183.067 121.028 170.977 165.449" stroke="black" stroke-miterlimit="10" stroke-linecap="round"/>
<path d="M194.702 193.467C186.406 184.146 176.266 172.434 170.276 164.359" stroke="black" stroke-miterlimit="10" stroke-linecap="round"/>
<path d="M183.769 209.802C175.807 201.639 165.048 190.02 160.352 185.714C153.034 179.003 145.439 168.205 147.915 154.333L147.618 143.211" stroke="black" stroke-miterlimit="10" stroke-linecap="round"/>
<path d="M231.563 203.841C221.758 198.543 217.241 191.984 213.46 187.122C204.44 175.525 201.244 174.089 203.887 160.591L204.032 146.465L223.601 167.643C231.074 177.556 248.302 195.327 254.667 202.329C254.667 202.329 247.195 212.287 231.563 203.841Z" fill="#79AADC"/>
<path d="M191.654 200.264C192.556 200.017 193.491 199.941 194.421 200.039C197.777 200.394 206.77 201.338 207.785 201.351C209.035 201.367 210.051 199.501 212.733 206.266C215.415 213.03 214.934 213.66 214.918 214.544C214.903 215.428 212.957 228.417 210.867 226.466C208.777 224.515 209.058 223.379 209.058 223.379C209.058 223.379 207.931 228.654 207.338 228.451C206.745 228.247 204.548 228.241 204.9 224.516C204.9 224.516 203.702 228.137 202.467 227.236C201.232 226.336 201.509 222.422 201.509 222.422C201.509 222.422 200.187 225.36 198.677 223.399C197.168 221.437 198.292 216.894 198.292 216.894L197.027 213.518L194.29 212.335C194.29 212.335 185.077 214.745 183.492 208.35C182.275 203.436 188.641 201.088 191.654 200.264Z" fill="#DB9C7F"/>
<path d="M210.185 208.555L211.915 215.825L209.058 223.378" stroke="black" stroke-miterlimit="10" stroke-linecap="round"/>
<path d="M205.744 208.286L207.985 215.737L204.899 224.514" stroke="black" stroke-miterlimit="10" stroke-linecap="round"/>
<path d="M201.848 209.118L203.153 216.282L201.66 221.648" stroke="black" stroke-miterlimit="10" stroke-linecap="round"/>
<path d="M194.324 70.9951C191.055 74.0551 191.007 77.7761 191.007 77.7761C191.007 77.7761 189.883 76.3881 188.493 75.9421" stroke="black" stroke-miterlimit="10" stroke-linecap="round"/>
<path d="M241.021 198.183C244.13 197.432 247.408 197.94 250.254 199.398C253.999 201.317 259.849 204.289 260.612 204.517C261.745 204.855 262.484 204.242 262.634 211.123C262.693 213.842 262.685 215.719 262.443 216.52C262.2 217.32 256.704 225.532 254.899 224.376C254.85 224.344 254.816 224.318 254.771 224.288C254.313 224.903 253.7 225.657 253.098 226.171C252.647 226.556 250.137 226.504 251.421 223.207C251.421 223.207 249.681 227.018 248.328 226.51C246.565 225.848 246.851 224.153 247.494 222.719C246.675 223.825 245.661 224.726 244.94 223.769C243.525 221.891 246.73 215.212 246.73 215.212L247.104 211.167L244.658 208.978C244.658 208.978 235.915 209.192 236.128 202.965C236.225 200.108 238.541 198.782 241.021 198.183Z" fill="#DB9C7F"/>
<path d="M260.208 208.603L260.097 215.981L254.715 223.812" stroke="black" stroke-miterlimit="10" stroke-linecap="round"/>
<path d="M256.387 208.66L255.966 216.265L251.421 223.205" stroke="black" stroke-miterlimit="10" stroke-linecap="round"/>
<path d="M252.507 208.859L251.962 215.263L248.083 221.697" stroke="black" stroke-miterlimit="10" stroke-linecap="round"/>
<path d="M241.444 207.153C241.444 207.153 242.322 213.754 240.191 215.203C238.061 216.652 234.625 203.001 236.988 202.827C240.451 202.571 241.444 207.153 241.444 207.153Z" fill="#DB9C7F"/>
<path d="M244.348 206.198C244.348 206.198 242.229 206.538 241.624 209.026" stroke="black" stroke-miterlimit="10" stroke-linecap="round"/>
<path d="M203.227 174.253L213.527 160.829C222.943 148.372 216.668 135.203 216.668 135.203" stroke="black" stroke-miterlimit="10" stroke-linecap="round"/>
<path d="M227.318 173.519C227.318 173.519 221.25 165.106 219.871 168.83" stroke="black" stroke-miterlimit="10" stroke-linecap="round"/>
<path d="M229.662 103.505L227.915 103.137" stroke="white" stroke-miterlimit="10"/>
<path d="M193.14 101.878L180.199 108.65C180.199 108.65 179.859 124.008 194.392 135.681L200.918 129.34L207.495 135.919C207.495 135.919 209.997 133.954 210.74 125.037L209.567 114.211L193.14 101.878Z" fill="white"/>
<path d="M209.568 114.211L193.14 101.878L180.199 108.65" stroke="black" stroke-miterlimit="10" stroke-linecap="round" stroke-linejoin="round"/>
<path d="M189.383 104.206C189.383 104.206 193.384 127.6 199.308 129.258C205.231 130.915 208.926 119.217 208.926 119.217L197.456 87.2832L189.383 104.206Z" fill="#DB9C7F"/>
<path d="M211.126 122.03L211.197 124.938C211.251 124.968 211.079 125.836 208.195 126.167C195.524 125.789 194.521 111.531 193.49 100.188C193.49 100.188 212.296 119.766 211.126 122.03Z" fill="black"/>
<path d="M228.858 90.2266C228.858 90.2266 232.113 119.879 214.719 124.697C197.325 129.515 193.158 101.15 193.758 91.3396C194.358 81.5296 199.256 76.6846 211.447 76.2456C229.482 75.5956 228.858 90.2266 228.858 90.2266Z" fill="#DB9C7F"/>
<path d="M202.818 82.1896C202.818 82.1896 202.492 88.4216 198.356 89.6666L195.382 98.8316C195.382 98.8316 192.89 94.7586 190.152 93.3156C190.152 93.3156 187.128 81.2126 190.935 76.4036C194.742 71.5946 200.034 69.1566 212.837 70.2216C222.582 71.0316 228.283 77.9446 230.145 81.4616C230.749 82.6016 232.214 85.8056 228.789 88.9226C228.789 88.9226 228.835 86.5646 226.835 83.8056C226.835 83.8056 222.169 93.3446 202.818 82.1896Z" fill="black"/>
<path d="M186.142 100.403C187.215 104.316 190.293 106.902 193.017 106.18C195.741 105.458 197.081 101.701 196.008 97.7875C194.936 93.8745 191.857 91.2885 189.133 92.0105C186.408 92.7335 185.069 96.4905 186.142 100.403Z" fill="#DB9C7F"/>
<path d="M211.221 101.709C211.171 102.717 211.65 103.56 212.291 103.593C212.932 103.626 213.491 102.835 213.54 101.827C213.59 100.819 213.111 99.9763 212.47 99.9433C211.83 99.9113 211.27 100.702 211.221 101.709Z" fill="black"/>
<path d="M224.637 102.538C224.538 103.482 224.925 104.298 225.501 104.359C226.077 104.42 226.625 103.705 226.724 102.76C226.823 101.816 226.436 101 225.86 100.939C225.283 100.878 224.736 101.594 224.637 102.538Z" fill="black"/>
<path d="M207.391 93.7277C207.391 93.7277 211.998 94.7147 212.305 90.3457" stroke="black" stroke-miterlimit="10" stroke-linecap="round"/>
<path d="M223.002 93.3691C223.002 93.3691 224.176 97.4301 227.639 95.0791" stroke="black" stroke-miterlimit="10" stroke-linecap="round"/>
<path d="M210.416 117.954C210.416 117.954 208.897 111.765 204.183 115.313L210.416 117.954Z" fill="black"/>
<path d="M188.876 96.9967C188.876 96.9967 191.94 94.3607 193.614 99.1807C193.614 99.1807 191.824 101.081 192.954 102.572C192.954 102.572 191.189 102.972 190.319 101.416" stroke="black" stroke-miterlimit="10" stroke-linecap="round" stroke-linejoin="round"/>
<path d="M190.203 98.8409C190.203 98.8409 190.374 97.7699 191.563 96.5469" stroke="black" stroke-miterlimit="10" stroke-linecap="round" stroke-linejoin="round"/>
<path d="M221.977 102.385C221.977 105.249 223.737 107.571 225.909 107.571C228.081 107.571 229.841 105.249 229.841 102.385C229.841 99.5212 228.081 97.1992 225.909 97.1992C223.737 97.1992 221.977 99.5212 221.977 102.385Z" stroke="white" stroke-miterlimit="10"/>
<path d="M207.261 101.677C207.261 104.712 209.502 107.172 212.266 107.172C215.03 107.172 217.271 104.712 217.271 101.677C217.271 98.6416 215.03 96.1816 212.266 96.1816C209.502 96.1806 207.261 98.6416 207.261 101.677Z" stroke="white" stroke-miterlimit="10"/>
<path d="M222.154 103.886C222.154 103.886 220.937 98.7215 216.989 103.52" stroke="white" stroke-miterlimit="10"/>
<path d="M207.366 99.5966L195.735 96.9766" stroke="white" stroke-miterlimit="10"/>
<path d="M222.641 106.172C223.217 106.903 223.337 107.774 223.046 108.716C222.759 109.646 221.811 110.212 220.851 110.192C220.406 110.183 219.979 110.063 219.558 109.931C219.374 109.874 219.01 109.677 218.812 109.764C217.853 110.188 216.736 109.351 217.056 108.697" stroke="black" stroke-miterlimit="10" stroke-linecap="round"/>
</svg>
